PathFileType	4	(X/Y/Z)	H:\MAC\Pilotos\MDrajagopal3\static1.trc																																																																																																																																																																																																																																								
DataRate	CameraRate	NumFrames	NumMarkers	Units	OrigDataRate	OrigDataStartFrame	OrigNumFrames																																																																																																																																																																																																																																				
150	150	4	78	mm	150	563	1500																																																																																																																																																																																																																																				
Frame#	Time	RACR			LACR			C7			CLAV			RASH			RPSH			LASH			LPSH			RUA1			RUA2			RUA3			RLEL			RMEL			RFAsuperior			RFAradius			RFAulna			LUA1			LUA2			LUA3			LLEL			LMEL			LFAsuperior			LFAradius			LFAulna			RASI			LASI			RPSI			LPSI			RTH1			RTH2			RTH3			RLFC			RMFC			RTB1			RTB2			RTB3			RLMAL			RMMAL			RCAL			RTOE			RMT5			LTH1			LTH2			LTH3			LLFC			LMFC			LTB1			LTB2			LTB3			LLMAL			LMMAL			LCAL			LTOE			LMT5			RSJC			LSJC			RHJC			LHJC			RKJC			LKJC			RAJC			LAJC			REJC			LEJC			Mid_ASIS			Mid_PSIS			RASHv			RPSHv			LPSHv			RLFCv			RMFCv			RLMALv			RMMALv			LLFCv			LMFCv			LLMALv			LMMALv			LASHv		
		X1	Y1	Z1	X2	Y2	Z2	X3	Y3	Z3	X4	Y4	Z4	X5	Y5	Z5	X6	Y6	Z6	X7	Y7	Z7	X8	Y8	Z8	X9	Y9	Z9	X10	Y10	Z10	X11	Y11	Z11	X12	Y12	Z12	X13	Y13	Z13	X14	Y14	Z14	X15	Y15	Z15	X16	Y16	Z16	X17	Y17	Z17	X18	Y18	Z18	X19	Y19	Z19	X20	Y20	Z20	X21	Y21	Z21	X22	Y22	Z22	X23	Y23	Z23	X24	Y24	Z24	X25	Y25	Z25	X26	Y26	Z26	X27	Y27	Z27	X28	Y28	Z28	X29	Y29	Z29	X30	Y30	Z30	X31	Y31	Z31	X32	Y32	Z32	X33	Y33	Z33	X34	Y34	Z34	X35	Y35	Z35	X36	Y36	Z36	X37	Y37	Z37	X38	Y38	Z38	X39	Y39	Z39	X40	Y40	Z40	X41	Y41	Z41	X42	Y42	Z42	X43	Y43	Z43	X44	Y44	Z44	X45	Y45	Z45	X46	Y46	Z46	X47	Y47	Z47	X48	Y48	Z48	X49	Y49	Z49	X50	Y50	Z50	X51	Y51	Z51	X52	Y52	Z52	X53	Y53	Z53	X54	Y54	Z54	X55	Y55	Z55	X56	Y56	Z56	X57	Y57	Z57	X58	Y58	Z58	X59	Y59	Z59	X60	Y60	Z60	X61	Y61	Z61	X62	Y62	Z62	X63	Y63	Z63	X64	Y64	Z64	X65	Y65	Z65	X66	Y66	Z66	X67	Y67	Z67	X68	Y68	Z68	X69	Y69	Z69	X70	Y70	Z70	X71	Y71	Z71	X72	Y72	Z72	X73	Y73	Z73	X74	Y74	Z74	X75	Y75	Z75	X76	Y76	Z76	X77	Y77	Z77	X78	Y78	Z78
																																																																																																																																																																																																																																											
563	3.747	695.41473	1392.09814	1385.08459	703.75482	1395.07019	1048.83459	647.49475	1412.50793	1207.2334	796.11212	1370.72803	1259.0885	765.83636	1365.08264	1404.51343	658.91339	1357.03418	1396.47717	776.927	1378.33264	1041.88562	674.36249	1356.01978	1029.88049	700.52039	1273.79822	1459.44092	742.32587	1205.74634	1478.74524	669.30804	1163.30396	1453.18689	686.35663	1118.96558	1493.20142	743.94531	1091.52588	1432.10364	759.54956	1042.48169	1576.73083	781.25574	968.02612	1628.87512	744.67242	915.87549	1587.50781	704.698	1296.85706	976.61426	747.17218	1212.42456	947.54321	686.91949	1169.39026	987.30566	716.56189	1134.30945	921.68134	748.49792	1093.20361	997.31482	778.19391	1028.58411	843.68115	824.72528	967.75195	817.93231	776.39532	917.67505	839.05878	828.8175	903.96527	1337.41675	832.17749	898.85645	1110.73877	653.98218	926.95605	1261.6582	651.32947	926.10431	1179.57336	734.36108	798.54498	1389.55603	690.35938	640.07697	1371.64539	756.99658	610.42761	1399.96924	751.62622	470.04861	1392.12805	757.73389	450.14484	1263.88843	784.65271	343.07678	1355.10754	702.91541	327.08221	1425.90161	738.29364	200.24464	1405.44043	684.79425	82.69553	1407.65698	710.03577	86.83146	1319.22461	636.26501	35.98632	1372.21143	845.53125	36.92783	1377.83765	806.97595	33.39307	1425.02991	748.34497	806.01953	1048.43591	700.90771	657.2309	1060.23059	752.05121	580.90009	1045.65283	755.83154	467.56119	1053.49805	741.59784	450.62292	1178.84924	782.58459	353.28317	1095.55078	691.25952	312.57697	1019.25751	746.13763	183.44426	1058.77368	692.60931	77.13201	1044.25391	712.1109	87.17248	1132.70471	643.5661	45.81225	1075.03296	844.90558	36.95572	1079.15698	817.49915	29.71317	1031.15247	712.37488	1361.05847	1400.49536	725.64478	1367.17627	1035.88306	736.36	839.783	1321.46	740.206	839.547	1117.396	754.68005	460.09674	1328.0083	748.71466	459.09204	1116.17371	697.41504	84.7635	1363.4408	702.36011	82.15224	1088.47937	715.151	1105.24573	1462.65247	732.52991	1113.75647	959.49811	830.4975	901.41083	1224.07776	652.65582	926.53015	1220.61572	804.88922	1312.28967	1443.27393	696.98187	1317.94507	1417.14673	737.91943	1397.87073	994.56995	724.22131	501.32288	1414.59436	782.37579	460.33951	1298.00427	703.12952	67.05077	1447.1825	729.01404	62.15139	1359.38379	772.71985	515.32477	1012.71997	782.04175	485.30658	1142.05872	710.51709	60.26442	1031.17688	747.11566	73.33744	1114.54333	822.50586	1376.30872	942.51587
564	3.753	695.43195	1392.09448	1385.0802	703.77997	1395.06799	1048.83203	647.52417	1412.5094	1207.23376	796.15234	1370.72461	1259.09314	765.87067	1365.08606	1404.50122	658.94141	1357.03503	1396.47302	776.97144	1378.32349	1041.89233	674.4021	1356.01733	1029.87817	700.54669	1273.7865	1459.44312	742.34204	1205.74146	1478.74426	669.33063	1163.30701	1453.18115	686.3877	1118.96423	1493.19568	743.96295	1091.5282	1432.09375	759.57495	1042.47327	1576.72595	781.28229	968.01849	1628.86865	744.69342	915.8667	1587.50183	704.74347	1296.84766	976.60925	747.21375	1212.41394	947.55402	686.96191	1169.38391	987.30042	716.58734	1134.30298	921.68445	748.53809	1093.19592	997.33234	778.21863	1028.573	843.68994	824.7417	967.7384	817.9505	776.41565	917.65308	839.07001	828.84338	903.95459	1337.41699	832.20404	898.85577	1110.7373	654.01996	926.9549	1261.65332	651.36182	926.10278	1179.57251	734.3858	798.54834	1389.5531	690.38434	640.0755	1371.64746	757.01794	610.42371	1399.96887	751.64832	470.0506	1392.13208	757.76239	450.12906	1263.88062	784.67029	343.07697	1355.10815	702.92761	327.08734	1425.90417	738.2959	200.24252	1405.44128	684.80286	82.69279	1407.64832	710.03491	86.82303	1319.22473	636.27112	35.98402	1372.20264	845.53381	36.93004	1377.83203	806.97589	33.39269	1425.03259	748.36359	806.01947	1048.42932	700.92114	657.23877	1060.21814	752.07141	580.89996	1045.65076	755.84442	467.55573	1053.49255	741.6109	450.63361	1178.85583	782.58228	353.2858	1095.54871	691.27374	312.57932	1019.25476	746.10046	183.44402	1058.59827	692.61774	77.1217	1044.25281	712.11011	87.16183	1132.71716	643.57159	45.79724	1075.05396	844.90216	36.96166	1079.15125	817.4964	29.70636	1031.15674	712.40607	1361.06055	1400.48718	725.68677	1367.17041	1035.88525	736.387	839.776	1321.455	740.235	839.548	1117.391	754.70532	460.08984	1328.00635	748.72766	459.09467	1116.17419	697.41888	84.75791	1363.43652	702.36395	82.14177	1088.48499	715.17535	1105.24622	1462.64465	732.56268	1113.74951	959.50836	830.52374	901.40515	1224.07715	652.69092	926.52887	1220.61292	804.91931	1312.27173	1443.28564	697.013	1317.93555	1417.15076	737.96997	1397.85986	994.5636	724.24969	501.32684	1414.6001	782.40222	460.34076	1298.00989	703.12341	67.0562	1447.17786	729.0083	62.15611	1359.37939	772.73615	515.32294	1012.72601	782.03156	485.30795	1142.06738	710.64526	60.26611	1031.03333	747.24988	73.31332	1114.40112	822.56439	1376.28687	942.52704
565	3.76	695.46503	1392.09875	1385.0791	703.81006	1395.06335	1048.82544	647.55347	1412.5072	1207.22852	796.17322	1370.72351	1259.08545	765.9032	1365.06812	1404.50159	658.95959	1357.03613	1396.48792	777.00146	1378.32129	1041.90015	674.42456	1356.01624	1029.87463	700.57831	1273.78979	1459.43994	742.37048	1205.74048	1478.73914	669.35858	1163.30432	1453.18274	686.40295	1118.95605	1493.18542	743.9986	1091.5177	1432.09766	759.59534	1042.47742	1576.71582	781.30182	968.01123	1628.85876	744.70355	915.85492	1587.49597	704.7876	1296.84607	976.61273	747.24249	1212.40356	947.55859	686.9826	1169.38354	987.29919	716.61395	1134.29272	921.69934	748.56439	1093.19006	997.33807	778.24738	1028.55518	843.70923	824.76917	967.72266	817.96942	776.10889	917.74158	839.1618	828.87976	903.95477	1337.41992	832.24023	898.85284	1110.74524	654.04755	926.95062	1261.65588	651.38971	926.1084	1179.57288	734.41724	798.5415	1389.55676	690.4118	640.07965	1371.64514	757.04388	610.4209	1399.9635	751.66937	470.04883	1392.14429	757.77167	450.12381	1263.87292	784.68176	343.07178	1355.10779	702.94623	327.08057	1425.89929	738.30511	200.24448	1405.4425	684.80133	82.6953	1407.65063	710.04163	86.81965	1319.22852	636.26898	35.99267	1372.19775	845.53241	36.92242	1377.83264	806.98389	33.39879	1425.02954	748.37946	806.02209	1048.42578	700.93817	657.23889	1060.21753	752.07623	580.8999	1045.65332	755.84882	467.55008	1053.48926	741.61761	450.63455	1178.84387	782.60608	353.28745	1095.55786	691.28296	312.58115	1019.25348	746.11346	183.43985	1058.6123	692.60901	77.1203	1044.24255	712.11505	87.16071	1132.69763	643.56757	45.80681	1075.03882	844.90405	36.96404	1079.1532	817.50952	29.70889	1031.15527	712.4314	1361.05212	1400.49475	725.71301	1367.1687	1035.88733	736.418	839.776	1321.459	740.268	839.547	1117.395	754.72052	460.0863	1328.00854	748.73322	459.09232	1116.1665	697.42151	84.75748	1363.43958	702.36206	82.14051	1088.47009	715.20081	1105.23682	1462.64148	732.58917	1113.74146	959.51868	830.56	901.40381	1224.08264	652.71863	926.52948	1220.61438	804.95038	1312.27319	1443.27466	697.04529	1317.93896	1417.14771	738.03375	1397.8512	994.57019	724.27039	501.31918	1414.58948	782.41919	460.33661	1297.99622	703.14069	67.04784	1447.1731	729.0246	62.1499	1359.37415	772.75433	515.32544	1012.72522	782.05292	485.31198	1142.06665	710.64636	60.27211	1031.04797	747.25104	73.31821	1114.41602	822.62659	1376.26172	942.53796
566	3.767	695.48993	1392.099	1385.08044	703.85181	1395.06152	1048.82971	647.58655	1412.5072	1207.2229	796.20807	1370.71936	1259.08313	765.93011	1365.06567	1404.49939	659.00104	1357.02966	1396.46924	777.04138	1378.30164	1041.90308	674.45825	1356.00928	1029.87537	700.6015	1273.78662	1459.44055	742.3894	1205.72766	1478.73022	669.38464	1163.2998	1453.17749	686.42169	1118.9552	1493.18494	744.01996	1091.51819	1432.08374	759.61041	1042.45667	1576.71252	781.3147	968.00531	1628.85107	744.72424	915.85126	1587.49365	704.8269	1296.83508	976.61304	747.2915	1212.39465	947.56921	687.00989	1169.37671	987.31439	716.65179	1134.28418	921.71198	748.58258	1093.18433	997.35712	778.28296	1028.54285	843.72308	824.80237	967.70844	817.98761	776.12994	917.71326	839.19141	828.91089	903.94757	1337.41675	832.26685	898.84058	1110.74487	654.07928	926.95325	1261.66418	651.42511	926.10309	1179.56726	734.44592	798.54242	1389.54968	690.42865	640.07391	1371.64771	757.06726	610.42126	1399.9613	751.70062	470.04199	1392.12585	757.80414	450.12234	1263.89014	784.69421	343.06506	1355.09692	702.96283	327.07874	1425.89685	738.31262	200.24292	1405.44043	684.79224	82.70023	1407.64722	710.0459	86.82105	1319.22034	636.26422	35.99545	1372.19165	845.53754	36.92701	1377.83032	806.97522	33.39251	1425.0199	748.40613	806.01855	1048.4198	700.96228	657.24561	1060.21948	752.07935	580.89868	1045.64905	755.85699	467.55734	1053.49048	741.63837	450.62894	1178.84521	782.59924	353.29193	1095.5553	691.2912	312.58252	1019.25208	746.16034	183.44264	1058.77466	692.62524	77.12117	1044.27197	712.11145	87.16724	1132.70471	643.5686	45.80626	1075.02881	844.909	36.95227	1079.15381	817.50525	29.70984	1031.15649	712.46558	1361.04773	1400.48438	725.74982	1367.15552	1035.88928	736.447	839.773	1321.461	740.294	839.539	1117.397	754.75238	460.08215	1328.00793	748.74768	459.09314	1116.16785	697.41907	84.76064	1363.43384	702.36835	82.1442	1088.48828	715.22083	1105.23669	1462.6344	732.61719	1113.73425	959.53455	830.58887	901.39404	1224.08081	652.7522	926.52814	1220.61572	804.97144	1312.27441	1443.27173	697.07092	1317.94116	1417.15381	738.06372	1397.84314	994.57153	724.2879	501.32144	1414.59387	782.4212	460.33209	1297.99524	703.14825	67.04663	1447.17444	729.02435	62.14585	1359.37341	772.7597	515.3208	1012.7135	782.08173	485.30643	1142.0531	710.55066	60.26918	1031.17847	747.13574	73.34566	1114.55029	822.66614	1376.25684	942.55341
